<mxfile host="app.diagrams.net" modified="2022-03-25T18:38:28.899Z" agent="5.0 (Macintosh; Intel Mac OS X 10_15_7) AppleWebKit/537.36 (KHTML, like Gecko) Chrome/99.0.4844.74 Safari/537.36" etag="FQ9--i9Nu0CH_TCKoToB" version="17.2.4" type="github">
  <diagram id="NeTqUug80Dr0zoWoRyR-" name="Page-1">
    <mxGraphModel dx="786" dy="489" grid="1" gridSize="10" guides="1" tooltips="1" connect="1" arrows="1" fold="1" page="1" pageScale="1" pageWidth="827" pageHeight="1169" math="0" shadow="0">
      <root>
        <mxCell id="0" />
        <mxCell id="1" parent="0" />
        <mxCell id="xmpCirDd5Wsjqy2ytxR7-2" value="APP&lt;br&gt;&lt;br&gt;&lt;br&gt;&lt;br&gt;&lt;br&gt;&lt;br&gt;&lt;br&gt;&lt;br&gt;&lt;br&gt;&lt;br&gt;" style="ellipse;whiteSpace=wrap;html=1;aspect=fixed;" vertex="1" parent="1">
          <mxGeometry x="50" y="30" width="300" height="300" as="geometry" />
        </mxCell>
        <mxCell id="xmpCirDd5Wsjqy2ytxR7-1" value="ITEM" style="ellipse;whiteSpace=wrap;html=1;aspect=fixed;" vertex="1" parent="1">
          <mxGeometry x="160" y="130" width="80" height="80" as="geometry" />
        </mxCell>
        <mxCell id="xmpCirDd5Wsjqy2ytxR7-4" style="edgeStyle=none;rounded=0;orthogonalLoop=1;jettySize=auto;html=1;exitX=0.5;exitY=1;exitDx=0;exitDy=0;entryX=0.5;entryY=0;entryDx=0;entryDy=0;endArrow=none;endFill=0;" edge="1" parent="1" source="xmpCirDd5Wsjqy2ytxR7-1" target="xmpCirDd5Wsjqy2ytxR7-3">
          <mxGeometry relative="1" as="geometry" />
        </mxCell>
        <mxCell id="xmpCirDd5Wsjqy2ytxR7-3" value="ITEM" style="ellipse;whiteSpace=wrap;html=1;aspect=fixed;" vertex="1" parent="1">
          <mxGeometry x="170" y="250" width="40" height="40" as="geometry" />
        </mxCell>
        <mxCell id="xmpCirDd5Wsjqy2ytxR7-5" value="ITEM" style="ellipse;whiteSpace=wrap;html=1;aspect=fixed;" vertex="1" parent="1">
          <mxGeometry x="100" y="210" width="40" height="40" as="geometry" />
        </mxCell>
        <mxCell id="xmpCirDd5Wsjqy2ytxR7-6" value="ITEM" style="ellipse;whiteSpace=wrap;html=1;aspect=fixed;" vertex="1" parent="1">
          <mxGeometry x="250" y="220" width="40" height="40" as="geometry" />
        </mxCell>
        <mxCell id="xmpCirDd5Wsjqy2ytxR7-7" value="" style="endArrow=none;html=1;rounded=0;entryX=0.5;entryY=1;entryDx=0;entryDy=0;exitX=1;exitY=0.5;exitDx=0;exitDy=0;" edge="1" parent="1" source="xmpCirDd5Wsjqy2ytxR7-5" target="xmpCirDd5Wsjqy2ytxR7-1">
          <mxGeometry width="50" height="50" relative="1" as="geometry">
            <mxPoint x="380" y="210" as="sourcePoint" />
            <mxPoint x="430" y="160" as="targetPoint" />
          </mxGeometry>
        </mxCell>
        <mxCell id="xmpCirDd5Wsjqy2ytxR7-8" value="" style="endArrow=none;html=1;rounded=0;exitX=0.5;exitY=1;exitDx=0;exitDy=0;entryX=0;entryY=0.5;entryDx=0;entryDy=0;" edge="1" parent="1" source="xmpCirDd5Wsjqy2ytxR7-1" target="xmpCirDd5Wsjqy2ytxR7-6">
          <mxGeometry width="50" height="50" relative="1" as="geometry">
            <mxPoint x="380" y="210" as="sourcePoint" />
            <mxPoint x="430" y="160" as="targetPoint" />
          </mxGeometry>
        </mxCell>
      </root>
    </mxGraphModel>
  </diagram>
</mxfile>
